<?xml version="1.0" encoding="utf-8"?>
<!-- Generator: Adobe Illustrator 26.3.1, SVG Export Plug-In . SVG Version: 6.00 Build 0)  -->
<svg version="1.1" id="Layer_1" xmlns="http://www.w3.org/2000/svg" xmlns:xlink="http://www.w3.org/1999/xlink" x="0px" y="0px"
	 viewBox="0 0 400 400" style="enable-background:new 0 0 400 400;" xml:space="preserve" width="30px" height="30px">
<g id="Layer_1_00000129927556218846279000000017328010763539216545_">
	<path d="M75,137.5c0-17.3,14-31.2,31.2-31.2h187.5c17.3,0,31.2,14,31.2,31.2v125c0,17.3-14,31.2-31.2,31.2H106.2
		c-17.3,0-31.2-14-31.2-31.2V137.5z M106.2,121.9c-8.6,0-15.6,7-15.6,15.6v3.4L200,206.5l109.4-65.6v-3.4c0-8.6-7-15.6-15.6-15.6
		H106.2z M309.4,159.1L235,203.7l74.3,44.9v-89.5H309.4z M308.8,266.6l-89-53.8L200,224.7l-19.9-11.9l-89,53.8
		c1.8,6.8,8,11.6,15.1,11.6h187.5C300.8,278.1,307,273.4,308.8,266.6z M90.6,248.7l74.3-44.9l-74.3-44.6L90.6,248.7L90.6,248.7z"/>
</g>
<g id="Layer_2_00000024690307798127134170000011592283253986304663_">
</g>
</svg>
