<?xml version="1.0" encoding="utf-8"?>
<!-- Generator: Adobe Illustrator 26.3.1, SVG Export Plug-In . SVG Version: 6.00 Build 0)  -->
<svg version="1.1" id="Layer_1" xmlns="http://www.w3.org/2000/svg" xmlns:xlink="http://www.w3.org/1999/xlink" x="0px" y="0px"
	 viewBox="0 0 400 400" style="enable-background:new 0 0 400 400;" xml:space="preserve" width="30px" height="30px">
<g id="Layer_1_00000145764478473824430290000008575260945023009979_">
</g>
<g id="Layer_2_00000091717666618861191670000013244524159841649794_">
	<path d="M200,80c-32.6,0-36.7,0.2-49.5,0.7c-12.8,0.6-21.5,2.6-29.1,5.6c-8,3-15.3,7.7-21.3,13.8c-6.1,6-10.8,13.2-13.8,21.3
		c-3,7.6-5,16.3-5.6,29.1C80.2,163.3,80,167.4,80,200s0.2,36.7,0.7,49.5c0.6,12.8,2.6,21.5,5.6,29.1c3.1,7.9,7.2,14.6,13.8,21.3
		c6.7,6.7,13.3,10.8,21.2,13.8c7.7,3,16.4,5,29.1,5.6c12.8,0.6,16.9,0.7,49.5,0.7s36.7-0.1,49.5-0.7s21.5-2.6,29.1-5.6
		c8-3,15.3-7.7,21.2-13.8c6.7-6.7,10.8-13.4,13.8-21.3c3-7.6,5-16.4,5.6-29.1c0.6-12.8,0.7-16.9,0.7-49.5s-0.1-36.7-0.7-49.5
		s-2.6-21.5-5.6-29.1c-3-8-7.7-15.3-13.8-21.3c-6-6.1-13.2-10.8-21.3-13.8c-7.7-3-16.4-5-29.1-5.6C236.6,80.2,232.6,80,200,80
		L200,80L200,80z M189.2,101.6H200c32,0,35.8,0.1,48.5,0.7c11.7,0.5,18.1,2.5,22.3,4.1c5.6,2.2,9.6,4.8,13.8,9
		c4.2,4.2,6.8,8.2,9,13.8c1.7,4.2,3.6,10.6,4.1,22.3c0.6,12.6,0.7,16.4,0.7,48.5s-0.1,35.8-0.7,48.5c-0.5,11.7-2.5,18-4.1,22.3
		c-1.9,5.2-5,9.9-9,13.8c-4.2,4.2-8.2,6.8-13.8,9c-4.2,1.6-10.6,3.6-22.3,4.1c-12.6,0.6-16.4,0.7-48.5,0.7s-35.9-0.1-48.5-0.7
		c-11.7-0.5-18-2.5-22.3-4.1c-5.2-1.9-9.9-5-13.8-9c-4-3.9-7.1-8.6-9-13.8c-1.6-4.2-3.6-10.6-4.1-22.3c-0.6-12.6-0.7-16.4-0.7-48.5
		c0-32,0.1-35.8,0.7-48.5c0.5-11.7,2.5-18.1,4.1-22.3c2.2-5.6,4.8-9.6,9-13.8c4.2-4.2,8.2-6.8,13.8-9c4.2-1.7,10.6-3.6,22.3-4.1
		C162.6,101.8,166.9,101.6,189.2,101.6L189.2,101.6z M264.1,121.6c-8,0-14.4,6.4-14.4,14.4s6.4,14.4,14.4,14.4l0,0
		c8,0,14.4-6.4,14.4-14.4S272,121.6,264.1,121.6z M200,138.4c-34-0.5-62.1,26.6-62.6,60.7s26.6,62.1,60.7,62.6c0.6,0,1.3,0,1.9,0
		c34-0.5,61.2-28.6,60.7-62.6C260.2,165.8,233.3,138.9,200,138.4z M200,160c22.1,0,40,17.9,40,40s-17.9,40-40,40l0,0
		c-22.1,0-40-17.9-40-40S177.9,160,200,160z"/>
</g>
</svg>
